<mxfile host="app.diagrams.net" modified="2023-10-16T05:01:27.192Z" agent="Mozilla/5.0 (Windows NT 10.0; Win64; x64) AppleWebKit/537.36 (KHTML, like Gecko) Chrome/116.0.0.0 Whale/3.22.205.26 Safari/537.36" version="22.0.4" etag="vKkx9apPJMgLKXFbu-7s" type="github">
  <diagram name="페이지-1" id="rpiVwGk9kPTpNpmiuq9t">
    <mxGraphModel>
      <root>
        <mxCell id="0" />
        <mxCell id="1" parent="0" />
      </root>
    </mxGraphModel>
  </diagram>
</mxfile>
